<mxfile host="app.diagrams.net" modified="2021-05-09T19:11:04.730Z" agent="5.0 (Macintosh; Intel Mac OS X 10_15_7) AppleWebKit/537.36 (KHTML, like Gecko) Chrome/90.0.4430.93 Safari/537.36" etag="q8552yyr7QNhrWjhdIuV" version="14.6.11" type="github">
  <diagram id="l02i0vnl1eyzw-CYFgMV" name="Page-1">
    <mxGraphModel dx="742" dy="1706" grid="1" gridSize="10" guides="1" tooltips="1" connect="1" arrows="1" fold="1" page="1" pageScale="1" pageWidth="850" pageHeight="1100" math="0" shadow="0">
      <root>
        <mxCell id="0" />
        <mxCell id="1" parent="0" />
        <mxCell id="C3qZ-1MCAbOyrySv8Orc-4" value="" style="rounded=0;whiteSpace=wrap;html=1;fontSize=18;strokeWidth=3;fillColor=none;dashed=1;dashPattern=1 1;" parent="1" vertex="1">
          <mxGeometry x="280" y="200" width="480" height="440" as="geometry" />
        </mxCell>
        <mxCell id="C3qZ-1MCAbOyrySv8Orc-8" value="" style="rounded=0;whiteSpace=wrap;html=1;fontSize=18;strokeWidth=3;fillColor=none;dashed=1;dashPattern=1 1;" parent="1" vertex="1">
          <mxGeometry x="280" y="-80" width="480" height="120" as="geometry" />
        </mxCell>
        <mxCell id="C3qZ-1MCAbOyrySv8Orc-7" value="" style="rounded=0;whiteSpace=wrap;html=1;fontSize=18;strokeWidth=3;fillColor=none;dashed=1;dashPattern=1 1;" parent="1" vertex="1">
          <mxGeometry x="280" y="60" width="480" height="120" as="geometry" />
        </mxCell>
        <mxCell id="C3qZ-1MCAbOyrySv8Orc-1" value="etcd" style="shape=cylinder3;whiteSpace=wrap;html=1;boundedLbl=1;backgroundOutline=1;size=5;strokeWidth=3;fontSize=18;shadow=0;" parent="1" vertex="1">
          <mxGeometry x="430" y="-50" width="60" height="60" as="geometry" />
        </mxCell>
        <mxCell id="C3qZ-1MCAbOyrySv8Orc-2" value="API Server" style="rounded=1;whiteSpace=wrap;html=1;fontSize=18;strokeWidth=3;" parent="1" vertex="1">
          <mxGeometry x="380" y="100" width="160" height="40" as="geometry" />
        </mxCell>
        <mxCell id="C3qZ-1MCAbOyrySv8Orc-3" value="ListerWatcher" style="rounded=1;whiteSpace=wrap;html=1;fontSize=18;strokeWidth=3;" parent="1" vertex="1">
          <mxGeometry x="380" y="240" width="160" height="40" as="geometry" />
        </mxCell>
        <mxCell id="C3qZ-1MCAbOyrySv8Orc-5" value="Client" style="text;html=1;strokeColor=none;fillColor=none;align=center;verticalAlign=middle;whiteSpace=wrap;rounded=0;fontSize=18;" parent="1" vertex="1">
          <mxGeometry x="300" y="210" width="40" height="20" as="geometry" />
        </mxCell>
        <mxCell id="C3qZ-1MCAbOyrySv8Orc-6" value="Server" style="text;html=1;strokeColor=none;fillColor=none;align=center;verticalAlign=middle;whiteSpace=wrap;rounded=0;fontSize=18;" parent="1" vertex="1">
          <mxGeometry x="300" y="70" width="40" height="20" as="geometry" />
        </mxCell>
        <mxCell id="C3qZ-1MCAbOyrySv8Orc-9" value="Storage" style="text;html=1;strokeColor=none;fillColor=none;align=center;verticalAlign=middle;whiteSpace=wrap;rounded=0;fontSize=18;" parent="1" vertex="1">
          <mxGeometry x="300" y="-70" width="40" height="20" as="geometry" />
        </mxCell>
        <mxCell id="C3qZ-1MCAbOyrySv8Orc-10" value="Reflector" style="rounded=1;whiteSpace=wrap;html=1;fontSize=18;strokeWidth=3;" parent="1" vertex="1">
          <mxGeometry x="380" y="320" width="160" height="40" as="geometry" />
        </mxCell>
        <mxCell id="C3qZ-1MCAbOyrySv8Orc-11" value="FIFO Queue" style="rounded=1;whiteSpace=wrap;html=1;fontSize=18;strokeWidth=3;" parent="1" vertex="1">
          <mxGeometry x="380" y="400" width="160" height="40" as="geometry" />
        </mxCell>
        <mxCell id="C3qZ-1MCAbOyrySv8Orc-12" value="Controller" style="rounded=1;whiteSpace=wrap;html=1;fontSize=18;strokeWidth=3;" parent="1" vertex="1">
          <mxGeometry x="380" y="480" width="160" height="40" as="geometry" />
        </mxCell>
        <mxCell id="C3qZ-1MCAbOyrySv8Orc-13" value="" style="endArrow=classic;html=1;fontSize=18;fontColor=#000000;exitX=0.5;exitY=1;exitDx=0;exitDy=0;exitPerimeter=0;entryX=0.5;entryY=0;entryDx=0;entryDy=0;strokeWidth=3;" parent="1" source="C3qZ-1MCAbOyrySv8Orc-1" target="C3qZ-1MCAbOyrySv8Orc-2" edge="1">
          <mxGeometry width="50" height="50" relative="1" as="geometry">
            <mxPoint x="500" y="120" as="sourcePoint" />
            <mxPoint x="550" y="70" as="targetPoint" />
          </mxGeometry>
        </mxCell>
        <mxCell id="C3qZ-1MCAbOyrySv8Orc-15" value="" style="endArrow=classic;html=1;fontSize=18;fontColor=#000000;exitX=0.5;exitY=1;exitDx=0;exitDy=0;strokeWidth=3;entryX=0.5;entryY=0;entryDx=0;entryDy=0;" parent="1" source="C3qZ-1MCAbOyrySv8Orc-2" target="C3qZ-1MCAbOyrySv8Orc-3" edge="1">
          <mxGeometry width="50" height="50" relative="1" as="geometry">
            <mxPoint x="449.5" y="140" as="sourcePoint" />
            <mxPoint x="450" y="220" as="targetPoint" />
          </mxGeometry>
        </mxCell>
        <mxCell id="C3qZ-1MCAbOyrySv8Orc-17" value="" style="endArrow=classic;html=1;fontSize=18;fontColor=#000000;exitX=0.5;exitY=1;exitDx=0;exitDy=0;strokeWidth=3;entryX=0.5;entryY=0;entryDx=0;entryDy=0;" parent="1" source="C3qZ-1MCAbOyrySv8Orc-3" target="C3qZ-1MCAbOyrySv8Orc-10" edge="1">
          <mxGeometry width="50" height="50" relative="1" as="geometry">
            <mxPoint x="470" y="150" as="sourcePoint" />
            <mxPoint x="470" y="250" as="targetPoint" />
          </mxGeometry>
        </mxCell>
        <mxCell id="C3qZ-1MCAbOyrySv8Orc-18" value="" style="endArrow=classic;html=1;fontSize=18;fontColor=#000000;exitX=0.5;exitY=1;exitDx=0;exitDy=0;strokeWidth=3;entryX=0.5;entryY=0;entryDx=0;entryDy=0;" parent="1" source="C3qZ-1MCAbOyrySv8Orc-10" target="C3qZ-1MCAbOyrySv8Orc-11" edge="1">
          <mxGeometry width="50" height="50" relative="1" as="geometry">
            <mxPoint x="470" y="290" as="sourcePoint" />
            <mxPoint x="470" y="330" as="targetPoint" />
          </mxGeometry>
        </mxCell>
        <mxCell id="C3qZ-1MCAbOyrySv8Orc-19" value="" style="endArrow=classic;html=1;fontSize=18;fontColor=#000000;exitX=0.5;exitY=1;exitDx=0;exitDy=0;strokeWidth=3;entryX=0.5;entryY=0;entryDx=0;entryDy=0;" parent="1" source="C3qZ-1MCAbOyrySv8Orc-11" target="C3qZ-1MCAbOyrySv8Orc-12" edge="1">
          <mxGeometry width="50" height="50" relative="1" as="geometry">
            <mxPoint x="470" y="370" as="sourcePoint" />
            <mxPoint x="470" y="410" as="targetPoint" />
          </mxGeometry>
        </mxCell>
        <mxCell id="C3qZ-1MCAbOyrySv8Orc-20" value="Add" style="text;html=1;strokeColor=none;fillColor=none;align=center;verticalAlign=middle;whiteSpace=wrap;rounded=0;shadow=0;dashed=1;dashPattern=1 1;fontSize=18;fontColor=#000000;" parent="1" vertex="1">
          <mxGeometry x="470" y="370" width="40" height="20" as="geometry" />
        </mxCell>
        <mxCell id="C3qZ-1MCAbOyrySv8Orc-21" value="Pop" style="text;html=1;strokeColor=none;fillColor=none;align=center;verticalAlign=middle;whiteSpace=wrap;rounded=0;shadow=0;dashed=1;dashPattern=1 1;fontSize=18;fontColor=#000000;" parent="1" vertex="1">
          <mxGeometry x="470" y="450" width="40" height="20" as="geometry" />
        </mxCell>
        <mxCell id="C3qZ-1MCAbOyrySv8Orc-22" value="EventHandler" style="rounded=1;whiteSpace=wrap;html=1;fontSize=18;strokeWidth=3;" parent="1" vertex="1">
          <mxGeometry x="380" y="560" width="160" height="40" as="geometry" />
        </mxCell>
        <mxCell id="C3qZ-1MCAbOyrySv8Orc-23" value="" style="endArrow=classic;html=1;fontSize=18;fontColor=#000000;exitX=0.5;exitY=1;exitDx=0;exitDy=0;strokeWidth=3;entryX=0.5;entryY=0;entryDx=0;entryDy=0;" parent="1" source="C3qZ-1MCAbOyrySv8Orc-12" target="C3qZ-1MCAbOyrySv8Orc-22" edge="1">
          <mxGeometry width="50" height="50" relative="1" as="geometry">
            <mxPoint x="470" y="450" as="sourcePoint" />
            <mxPoint x="470" y="490" as="targetPoint" />
          </mxGeometry>
        </mxCell>
        <mxCell id="C3qZ-1MCAbOyrySv8Orc-24" value="AddFunc, UpdateFunc, DeleteFunc" style="text;html=1;strokeColor=none;fillColor=none;align=center;verticalAlign=middle;whiteSpace=wrap;rounded=0;shadow=0;dashed=1;dashPattern=1 1;fontSize=18;fontColor=#000000;" parent="1" vertex="1">
          <mxGeometry x="470" y="530" width="290" height="20" as="geometry" />
        </mxCell>
      </root>
    </mxGraphModel>
  </diagram>
</mxfile>
